HIERARCHY
ROOT Hips
{
 OFFSET 0.000000 0.000000 0.000000
 CHANNELS 6 Xposition Yposition Zposition Yrotation Xrotation Zrotation
 JOINT Chest
 {
  OFFSET 0.000000 9.857222 0.000240
  CHANNELS 3 Yrotation Xrotation Zrotation
  JOINT Chest2
  {
   OFFSET 0.000000 10.876940 -0.000436
   CHANNELS 3 Yrotation Xrotation Zrotation
   JOINT Chest3
   {
    OFFSET 0.000000 9.827798 0.000000
    CHANNELS 3 Yrotation Xrotation Zrotation
    JOINT Chest4
    {
     OFFSET 0.000000 9.827798 0.000000
     CHANNELS 3 Yrotation Xrotation Zrotation
     JOINT Neck
     {
      OFFSET 0.000000 13.831992 0.000000
      CHANNELS 3 Yrotation Xrotation Zrotation
      JOINT Head
      {
       OFFSET 0.000000 9.147643 -0.001036
       CHANNELS 3 Yrotation Xrotation Zrotation
       End Site
       {
        OFFSET 0.000000 17.515799 -0.000541
       }
      }
     }
     JOINT RightCollar
     {
      OFFSET -3.001579 7.717577 0.000000
      CHANNELS 3 Yrotation Xrotation Zrotation
      JOINT RightShoulder
      {
       OFFSET -14.002642 0.000000 0.000000
       CHANNELS 3 Yrotation Xrotation Zrotation
       JOINT RightElbow
       {
        OFFSET -30.053852 0.000000 0.000000
        CHANNELS 3 Yrotation Xrotation Zrotation
        JOINT RightWrist
        {
         OFFSET -24.564923 0.000000 -0.000000
         CHANNELS 3 Yrotation Xrotation Zrotation
         End Site
         {
          OFFSET -18.334355 0.000000 0.000000
         }
        }
       }
      }
     }
     JOINT LeftCollar
     {
      OFFSET 3.001579 7.717577 0.000000
      CHANNELS 3 Yrotation Xrotation Zrotation
      JOINT LeftShoulder
      {
       OFFSET 14.002642 0.000000 0.000000
       CHANNELS 3 Yrotation Xrotation Zrotation
       JOINT LeftElbow
       {
        OFFSET 30.053852 0.000000 0.000000
        CHANNELS 3 Yrotation Xrotation Zrotation
        JOINT LeftWrist
        {
         OFFSET 24.564923 0.000000 -0.000000
         CHANNELS 3 Yrotation Xrotation Zrotation
         End Site
         {
          OFFSET 18.334355 0.000000 0.000000
         }
        }
       }
      }
     }
    }
   }
  }
 }
 JOINT RightHip
 {
  OFFSET -8.003235 -0.001175 -0.000120
  CHANNELS 3 Yrotation Xrotation Zrotation
  JOINT RightKnee
  {
   OFFSET 0.000000 -41.759727 0.000113
   CHANNELS 3 Yrotation Xrotation Zrotation
   JOINT RightAnkle
   {
    OFFSET 0.000000 -40.728748 0.000159
    CHANNELS 3 Yrotation Xrotation Zrotation
    JOINT RightToe
    {
     OFFSET 0.000000 -6.515296 14.732841
     CHANNELS 3 Yrotation Xrotation Zrotation
     End Site
     {
      OFFSET 0.000000 -1.502839 6.412115
     }
    }
   }
  }
 }
 JOINT LeftHip
 {
  OFFSET 8.003235 -0.001175 -0.000120
  CHANNELS 3 Yrotation Xrotation Zrotation
  JOINT LeftKnee
  {
   OFFSET 0.000000 -41.759727 0.000113
   CHANNELS 3 Yrotation Xrotation Zrotation
   JOINT LeftAnkle
   {
    OFFSET 0.000000 -40.728748 0.000159
    CHANNELS 3 Yrotation Xrotation Zrotation
    JOINT LeftToe
    {
     OFFSET 0.000000 -6.515296 14.732841
     CHANNELS 3 Yrotation Xrotation Zrotation
     End Site
     {
      OFFSET 0.000000 -1.502839 6.412115
     }
    }
   }
  }
 }
}
MOTION
Frames: 12
Frame Time: 0.016667
0.000000 88.822259 0.000000 0.000000 -5.826342 0.000000 0.000000 11.116423 0.000000 0.000000 -5.290081 0.000000 0.000000 0.000000 0.000000 0.000000 0.000000 0.000000 0.000000 12.665069 0.000000 0.000000 0.575450 0.000000 0.000000 0.000000 0.000000 0.000000 0.000000 0.000000 2.337306 0.000000 0.000000 -2.337306 0.000000 0.000000 0.000000 0.000000 0.000000 0.000000 0.000000 0.000000 -2.337306 0.000000 0.000000 2.337306 0.000000 0.000000 0.000000 8.578828 0.000000 0.000000 1.905768 0.000000 0.000000 -4.658254 0.000000 0.000000 0.000000 0.000000 0.000000 8.578828 0.000000 0.000000 1.905768 0.000000 0.000000 -4.658254 0.000000 0.000000 0.000000 0.000000
9.219013 90.552082 15.720709 -34.584213 -17.246818 -0.590322 1.112693 7.304509 -0.577243 0.628122 3.130481 -0.170265 0.628122 3.130481 -0.170265 0.471848 2.347689 -0.130888 -2.332323 19.660982 1.208953 -4.634603 0.410047 2.932066 7.544906 1.567814 10.408917 42.098274 -9.684867 88.959268 9.227691 -0.437059 -1.332321 -2.142965 -2.091065 -5.046916 -22.012498 2.913083 -12.127588 -29.539477 11.304994 -67.995439 -23.460896 -48.268758 -0.640641 3.578854 4.902777 4.327631 3.433997 26.800494 -2.259417 -0.036234 -5.319568 4.726908 -0.401791 -4.226756 -1.720527 -0.345228 0.213593 -0.168056 -1.594594 19.819090 0.285885 0.435684 0.583993 -1.484716 1.547596 -3.827236 1.275528 0.059096 -0.077593 0.019884
9.205456 90.549039 15.722243 -34.590809 -17.195797 -0.575388 1.114882 7.279683 -0.593218 0.630940 3.118074 -0.173169 0.630940 3.118074 -0.173169 0.473972 2.338380 -0.133067 -2.328195 19.667945 1.209647 -4.627030 0.422815 2.931760 7.552145 1.587767 10.407328 42.100585 -9.701593 88.973118 9.223670 -0.415690 -1.355903 -2.140923 -2.105178 -5.059625 -22.017021 2.935182 -12.118367 -29.558818 11.317499 -67.988948 -23.489634 -48.288688 -0.645986 3.562534 4.900136 4.320091 3.397048 26.765357 -2.295564 -0.055867 -5.332594 4.746243 -0.363646 -4.227720 -1.723255 -0.364302 0.219620 -0.173603 -1.642288 19.765185 0.275307 0.449659 0.601353 -1.504397 1.563317 -3.842879 1.276163 0.062658 -0.074208 0.022194
9.191543 90.545456 15.723415 -34.609016 -17.154156 -0.562182 1.126638 7.254475 -0.603363 0.634565 3.107896 -0.175627 0.634565 3.107896 -0.175627 0.476701 2.330743 -0.134918 -2.323299 19.678105 1.206877 -4.616867 0.441314 2.924763 7.557505 1.607207 10.400886 42.097542 -9.711679 88.985496 9.217184 -0.377137 -1.353321 -2.131400 -2.106709 -5.040111 -22.018381 2.954686 -12.113681 -29.543982 11.326142 -67.968830 -23.500900 -48.219024 -0.686004 3.561025 4.892095 4.320837 3.391058 26.736850 -2.319202 -0.081217 -5.346538 4.763815 -0.328108 -4.224845 -1.724692 -0.379908 0.225328 -0.178953 -1.662394 19.727233 0.260917 0.466189 0.607908 -1.497610 1.562418 -3.854565 1.265320 0.062905 -0.069905 0.023510
9.179261 90.543530 15.730327 -34.624794 -17.126587 -0.547264 1.135747 7.236665 -0.614511 0.637539 3.101481 -0.179073 0.637539 3.101481 -0.179073 0.478947 2.325927 -0.137510 -2.319051 19.687751 1.204635 -4.608070 0.458914 2.918952 7.559830 1.621828 10.394425 42.107108 -9.711567 88.991460 9.219252 -0.337963 -1.330633 -2.112649 -2.106157 -5.006727 -22.020761 2.976392 -12.104201 -29.527726 11.320476 -67.949244 -23.498237 -48.148531 -0.719819 3.564400 4.892098 4.316361 3.350189 26.732947 -2.347336 -0.073169 -5.376024 4.760716 -0.317203 -4.212936 -1.719122 -0.390058 0.225463 -0.181680 -1.643550 19.710483 0.244372 0.468315 0.603663 -1.471528 1.535939 -3.856717 1.250682 0.060757 -0.071118 0.022946
9.164360 90.541844 15.744672 -34.630346 -17.104688 -0.539103 1.135975 7.229870 -0.618758 0.639958 3.095272 -0.183314 0.639958 3.095272 -0.183314 0.480781 2.321266 -0.140696 -2.315869 19.696632 1.202383 -4.601246 0.475141 2.913486 7.566080 1.635594 10.391692 42.128235 -9.704263 88.991538 9.226881 -0.293772 -1.298672 -2.097438 -2.099420 -4.975005 -22.024048 2.988735 -12.093624 -29.524759 11.318570 -67.941974 -23.498768 -48.103143 -0.734323 3.571515 4.899545 4.314985 3.255835 26.746405 -2.390661 -0.047133 -5.417838 4.768119 -0.316167 -4.196931 -1.734378 -0.368050 0.221298 -0.170680 -1.610592 19.706711 0.235838 0.447118 0.593396 -1.441205 1.537083 -3.861006 1.234637 0.056639 -0.071867 0.021203
9.148072 90.539463 15.760475 -34.635591 -17.093404 -0.536362 1.137364 7.224607 -0.615717 0.641537 3.091258 -0.187738 0.641537 3.091258 -0.187738 0.481987 2.318250 -0.144017 -2.313478 19.707127 1.199334 -4.595560 0.494361 2.906746 7.573422 1.658452 10.388879 42.153128 -9.703010 88.991278 9.221102 -0.233855 -1.272950 -2.085545 -2.087125 -4.947515 -22.028325 3.015138 -12.089849 -29.531016 11.308210 -67.929355 -23.496320 -48.075172 -0.735661 3.576008 4.905430 4.310235 3.175731 26.776258 -2.415663 -0.062841 -5.465528 4.776455 -0.297779 -4.177829 -1.760372 -0.332716 0.216090 -0.152878 -1.566745 19.718577 0.238726 0.408264 0.576648 -1.417155 1.557518 -3.866080 1.222098 0.052639 -0.070503 0.018711
9.136601 90.537190 15.777739 -34.644433 -17.086512 -0.530769 1.139476 7.222847 -0.616050 0.643903 3.089710 -0.192344 0.643903 3.089710 -0.192344 0.483783 2.317083 -0.147482 -2.312063 19.716436 1.195101 -4.591334 0.511368 2.898196 7.583212 1.674934 10.389346 42.179478 -9.705985 88.996746 9.209019 -0.174634 -1.258527 -2.074303 -2.090929 -4.937775 -22.036660 3.041435 -12.083639 -29.538103 11.288289 -67.917886 -23.485778 -48.063859 -0.732082 3.582163 4.922699 4.306801 3.127599 26.805343 -2.433132 -0.085451 -5.503331 4.784390 -0.317173 -4.165947 -1.780741 -0.301772 0.211945 -0.137288 -1.557112 19.733240 0.227223 0.377362 0.559972 -1.402354 1.581078 -3.868039 1.219746 0.046911 -0.070920 0.016348
9.127313 90.535009 15.795241 -34.653971 -17.081231 -0.534761 1.141810 7.224661 -0.605514 0.646691 3.087969 -0.195764 0.646691 3.087969 -0.195764 0.485891 2.315773 -0.150058 -2.310466 19.724619 1.188702 -4.586148 0.526170 2.885685 7.589563 1.694377 10.390019 42.213324 -9.718963 88.993628 9.192369 -0.155787 -1.260326 -2.063289 -2.090824 -4.920240 -22.047199 3.054038 -12.082052 -29.543854 11.276330 -67.910059 -23.469988 -48.046000 -0.737092 3.583175 4.928215 4.311559 3.099496 26.829958 -2.426599 -0.083102 -5.535210 4.777824 -0.370339 -4.156213 -1.805719 -0.250750 0.206657 -0.113181 -1.569216 19.744229 0.212653 0.350615 0.554207 -1.381472 1.625559 -3.879349 1.214445 0.039309 -0.067599 0.014727
9.130668 90.531929 15.808076 -34.676784 -17.049236 -0.533333 1.159798 7.200615 -0.595442 0.647931 3.084445 -0.197506 0.647931 3.084445 -0.197506 0.486829 2.313128 -0.151367 -2.307808 19.734602 1.180036 -4.578264 0.544156 2.868640 7.593219 1.713543 10.389138 42.244757 -9.729149 88.992635 9.176764 -0.161811 -1.277550 -2.044421 -2.099601 -4.889502 -22.059853 3.069250 -12.090030 -29.552171 11.269167 -67.889568 -23.454542 -48.050188 -0.752661 3.580121 4.925014 4.317923 3.152096 26.800774 -2.416898 -0.110301 -5.532953 4.787011 -0.403264 -4.155797 -1.810480 -0.235664 0.204687 -0.107006 -1.571524 19.724049 0.198669 0.317159 0.543586 -1.376368 1.654766 -3.881777 1.223973 0.034042 -0.063767 0.013319
9.140737 90.529220 15.818784 -34.699776 -17.017449 -0.535178 1.178707 7.178555 -0.582346 0.649231 3.080976 -0.198383 0.649231 3.080976 -0.198383 0.487807 2.310525 -0.152027 -2.303720 19.744232 1.172352 -4.568088 0.561474 2.852960 7.596112 1.745645 10.395440 42.257669 -9.747761 88.963862 9.163017 -0.173673 -1.270246 -2.031321 -2.105430 -4.861489 -22.066147 3.089196 -12.099655 -29.568910 11.261188 -67.868671 -23.451530 -48.072796 -0.761163 3.583783 4.939544 4.321013 3.229083 26.761890 -2.399948 -0.127913 -5.521174 4.796259 -0.446763 -4.155726 -1.811740 -0.221591 0.202134 -0.101803 -1.543059 19.697210 0.193242 0.287859 0.539582 -1.364386 1.664236 -3.882748 1.230308 0.031112 -0.060009 0.012597
9.146836 90.527942 15.829119 -34.711277 -17.012949 -0.545867 1.187117 7.175757 -0.564108 0.650369 3.080127 -0.198701 0.650369 3.080127 -0.198701 0.488662 2.309887 -0.152271 -2.298017 19.755059 1.167683 -4.555857 0.581089 2.842236 7.599738 1.778561 10.407962 42.255227 -9.751753 88.904009 9.149226 -0.167260 -1.229857 -2.026376 -2.107477 -4.834409 -22.076833 3.109526 -12.107127 -29.589256 11.250064 -67.852779 -23.452070 -48.072296 -0.762535 3.579594 4.924244 4.323875 3.274756 26.754074 -2.370708 -0.122398 -5.512354 4.789217 -0.496636 -4.154260 -1.819547 -0.187027 0.196056 -0.088252 -1.494063 19.698398 0.201564 0.252647 0.535942 -1.345652 1.643730 -3.883157 1.232634 0.029851 -0.056410 0.011279
